<svg xmlns="http://www.w3.org/2000/svg" xmlns:xlink="http://www.w3.org/1999/xlink" version="1.1" id="Layer_1" x="0px" y="0px" viewBox="0 0 915 608" style="enable-background:new 0 0 915 608;" xml:space="preserve" width="915"  height="608" >
<style type="text/css">
	.st0{fill:#4D4D4F;stroke:#333333;stroke-miterlimit:10;}
	.st1{fill:#F7941F;stroke:#CC6600;stroke-miterlimit:10;}
	.st2{fill:#F7941F;stroke:#F68603;stroke-miterlimit:10;}
</style>
<g>
	<path class="st0" d="M529.6,451.2c9.9-4.4,19.7-9,29.2-13.7c-18.5,9.9-37.7,19.4-57.5,28.3c-215.9,96.6-429.1,89.7-476.1-15.4   c-9.9-22.1-11.6-46.7-6.2-72.8h37.5c-3.7,22.5-1.7,43.7,6.9,62.9C108.5,541.4,317.2,546.2,529.6,451.2z"/>
	<path class="st0" d="M137.9,239.3h-35.3c55.4-57.1,134.5-111.9,228.6-154c111.1-49.7,221.4-72,308.8-67.6   c-80.3,2.1-176.7,24.6-273.8,68.1C271.9,127.9,192.8,182.6,137.9,239.3z"/>
	<path class="st1" d="M716.2,377.6h66.1c-54.7,52-126.9,100.7-212.1,139.8c-191.5,87.8-380.5,94.3-463.4,21.7   c84.1,53.2,249.9,42.7,417.8-36.8C600.8,466.2,666.1,423.3,716.2,377.6z"/>
	<path class="st1" d="M881.7,239.3h-66.4c12.6-36.6,13.7-72.7,1.3-106.5C787.8,61.6,664.4-0.8,457.3,84.7   c-5.4,2.2-10.6,5.1-15.8,7.7c16.5-8.9,33.6-17.4,51.3-25.5c134.4-61.7,355.7-61,396.1,58.7C900.6,160.1,897.5,199,881.7,239.3z"/>
	<g>
		<path class="st2" d="M22.1,367.6V242.7h44.6c11.2,0,19.3,1.1,24.4,3.4c5.1,2.2,9.1,6.2,12.2,12c3.1,5.7,4.6,12.3,4.6,19.7    c0,9.4-2.3,17.1-6.9,23.2c-4.6,6.1-11.5,10-20.7,11.5c4.6,3.2,8.4,6.7,11.3,10.5c3,3.8,7,10.6,12,20.3l12.8,24.4H91l-15.3-27.2    c-5.4-9.7-9.2-15.8-11.2-18.4c-2-2.5-4.1-4.3-6.4-5.2c-2.2-0.9-5.8-1.4-10.7-1.4h-4.3v52.1H22.1z M43.2,295.6h15.7    c10.2,0,16.5-0.5,19-1.5s4.5-2.8,5.9-5.3s2.1-5.6,2.1-9.4c0-4.2-0.9-7.6-2.8-10.2c-1.9-2.6-4.5-4.2-8-4.9    c-1.7-0.3-6.9-0.4-15.4-0.4H43.2V295.6z"/>
		<path class="st2" d="M142.7,310.5l-18.8-3.6c2.1-8,5.7-13.8,10.9-17.7c5.2-3.8,12.8-5.7,23-5.7c9.2,0,16.1,1.1,20.6,3.4    s7.7,5.2,9.5,8.8c1.8,3.5,2.8,10,2.8,19.5l-0.2,25.4c0,7.2,0.3,12.6,1,16s1.9,7.1,3.7,11h-20.5c-0.5-1.4-1.2-3.6-2-6.4    c-0.3-1.3-0.6-2.1-0.7-2.6c-3.5,3.6-7.3,6.3-11.3,8.1c-4,1.8-8.3,2.7-12.9,2.7c-8.1,0-14.4-2.3-19-6.9s-7-10.4-7-17.4    c0-4.6,1.1-8.8,3.2-12.4c2.1-3.6,5.1-6.4,8.9-8.4c3.8-1.9,9.3-3.6,16.5-5.1c9.7-1.9,16.4-3.7,20.1-5.3v-2.2c0-4.2-1-7.2-2.9-8.9    c-2-1.8-5.7-2.7-11.1-2.7c-3.7,0-6.6,0.8-8.6,2.3C145.6,304,143.9,306.7,142.7,310.5z M170.4,328.1c-2.7,0.9-6.8,2-12.6,3.3    c-5.7,1.3-9.5,2.6-11.3,3.8c-2.7,2-4.1,4.6-4.1,7.7c0,3,1.1,5.7,3.2,7.9c2.2,2.2,4.9,3.3,8.2,3.3c3.7,0,7.3-1.3,10.7-3.9    c2.5-2,4.1-4.4,4.9-7.2c0.5-1.9,0.8-5.4,0.8-10.6v-4.3H170.4z"/>
		<path class="st2" d="M328,367.6h-20.7v-42c0-8.9-0.4-14.6-1.3-17.2s-2.3-4.6-4.3-6.1c-2-1.4-4.4-2.2-7.2-2.2c-3.6,0-6.8,1-9.6,3.1    c-2.8,2.1-4.8,4.8-5.9,8.2c-1.1,3.4-1.6,9.7-1.6,18.9v37.3h-20.7v-82.3h19.2v12.1c6.8-9.3,15.4-13.9,25.8-13.9    c4.6,0,8.7,0.9,12.5,2.6s6.6,3.9,8.6,6.6c1.9,2.7,3.3,5.7,4.1,9.1c0.8,3.4,1.1,8.3,1.1,14.6V367.6z"/>
		<path class="st2" d="M359.2,310.5l-18.8-3.6c2.1-8,5.7-13.8,10.9-17.7c5.2-3.8,12.8-5.7,23-5.7c9.2,0,16.1,1.1,20.6,3.4    s7.7,5.2,9.5,8.8c1.8,3.5,2.8,10,2.8,19.5l-0.2,25.4c0,7.2,0.3,12.6,1,16s1.9,7.1,3.7,11h-20.5c-0.5-1.4-1.2-3.6-2-6.4    c-0.3-1.3-0.6-2.1-0.7-2.6c-3.5,3.6-7.3,6.3-11.3,8.1c-4,1.8-8.3,2.7-12.9,2.7c-8.1,0-14.4-2.3-19-6.9s-7-10.4-7-17.4    c0-4.6,1.1-8.8,3.2-12.4s5.1-6.4,8.9-8.4c3.8-1.9,9.3-3.6,16.5-5.1c9.7-1.9,16.4-3.7,20.1-5.3v-2.2c0-4.2-1-7.2-2.9-8.9    c-2-1.8-5.7-2.7-11.1-2.7c-3.7,0-6.6,0.8-8.6,2.3C362.2,304,360.5,306.7,359.2,310.5z M386.9,328.1c-2.7,0.9-6.8,2-12.6,3.3    c-5.7,1.3-9.5,2.6-11.3,3.8c-2.7,2-4.1,4.6-4.1,7.7c0,3,1.1,5.7,3.2,7.9c2.2,2.2,4.9,3.3,8.2,3.3c3.7,0,7.3-1.3,10.7-3.9    c2.5-2,4.1-4.4,4.9-7.2c0.5-1.9,0.8-5.4,0.8-10.6v-4.3H386.9z"/>
		<path class="st0" d="M509.5,321.7v-21h47v49.8c-4.6,5.1-11.2,9.6-19.8,13.5c-8.7,3.9-17.4,5.8-26.3,5.8c-11.3,0-21.1-2.7-29.5-8.2    s-14.7-13.3-18.9-23.5s-6.3-21.3-6.3-33.3c0-13,2.4-24.6,7.1-34.7c4.7-10.1,11.6-17.9,20.7-23.3c6.9-4.1,15.5-6.2,25.9-6.2    c13.4,0,23.9,3.3,31.4,9.8s12.4,15.5,14.5,27l-21.7,4.7c-1.5-6.1-4.4-11-8.6-14.5c-4.2-3.5-9.4-5.3-15.7-5.3    c-9.5,0-17.1,3.5-22.7,10.5c-5.6,7-8.4,17.4-8.4,31.1c0,14.8,2.8,25.9,8.5,33.4c5.7,7.4,13.2,11.1,22.4,11.1c4.6,0,9.1-1,13.7-3.1    c4.6-2.1,8.5-4.6,11.8-7.5V322h-25.1V321.7z"/>
		<path class="st0" d="M575.6,367.6V254.1h20.7v113.5H575.6z"/>
		<path class="st0" d="M605.9,325.3c0-7.2,1.7-14.2,5.1-21c3.4-6.8,8.2-11.9,14.4-15.5s13.1-5.3,20.8-5.3c11.8,0,21.5,4,29.1,12.1    s11.3,18.3,11.3,30.6c0,12.4-3.8,22.8-11.5,30.9c-7.6,8.2-17.2,12.3-28.8,12.3c-7.2,0-14-1.7-20.5-5.1s-11.5-8.4-14.8-15    C607.6,342.8,605.9,334.8,605.9,325.3z M627.1,326.5c0,8.2,1.8,14.4,5.5,18.7c3.7,4.3,8.2,6.5,13.6,6.5c5.4,0,9.9-2.2,13.6-6.5    s5.5-10.6,5.5-18.9c0-8.1-1.8-14.3-5.5-18.6c-3.7-4.3-8.2-6.5-13.6-6.5c-5.4,0-9.9,2.2-13.6,6.5    C629,312.1,627.1,318.4,627.1,326.5z"/>
		<path class="st0" d="M695.2,367.6V254.1h20.7V295c6.4-7.6,13.9-11.5,22.7-11.5c9.5,0,17.4,3.6,23.6,10.9    c6.2,7.3,9.4,17.7,9.4,31.3c0,14-3.2,24.9-9.5,32.5c-6.4,7.6-14.1,11.4-23.2,11.4c-4.5,0-8.9-1.2-13.2-3.5s-8.1-5.8-11.2-10.4    v12.1h-19.3V367.6z M715.7,324.7c0,8.5,1.3,14.8,3.8,18.9c3.6,5.8,8.3,8.7,14.3,8.7c4.6,0,8.5-2.1,11.7-6.2s4.8-10.6,4.8-19.4    c0-9.4-1.6-16.2-4.9-20.3c-3.2-4.2-7.4-6.2-12.4-6.2s-9.1,2-12.4,6.1C717.3,310.3,715.7,316.5,715.7,324.7z"/>
		<path class="st0" d="M796.8,310.5l-18.8-3.6c2.1-8,5.7-13.8,10.9-17.7c5.2-3.8,12.8-5.7,23-5.7c9.2,0,16.1,1.1,20.6,3.4    s7.7,5.2,9.5,8.8c1.8,3.5,2.8,10,2.8,19.5l-0.2,25.4c0,7.2,0.3,12.6,1,16s1.9,7.1,3.7,11h-20.5c-0.5-1.4-1.2-3.6-2-6.4    c-0.3-1.3-0.6-2.1-0.7-2.6c-3.5,3.6-7.3,6.3-11.3,8.1c-4,1.8-8.3,2.7-12.9,2.7c-8.1,0-14.4-2.3-19-6.9s-7-10.4-7-17.4    c0-4.6,1.1-8.8,3.2-12.4c2.1-3.6,5.1-6.4,8.9-8.4c3.8-1.9,9.3-3.6,16.5-5.1c9.7-1.9,16.4-3.7,20.1-5.3v-2.2c0-4.2-1-7.2-2.9-8.9    c-2-1.8-5.7-2.7-11.1-2.7c-3.7,0-6.6,0.8-8.6,2.3C799.8,304,798.1,306.7,796.8,310.5z M824.5,328.1c-2.7,0.9-6.8,2-12.6,3.3    c-5.7,1.3-9.5,2.6-11.3,3.8c-2.7,2-4.1,4.6-4.1,7.7c0,3,1.1,5.7,3.2,7.9c2.2,2.2,4.9,3.3,8.2,3.3c3.7,0,7.3-1.3,10.7-3.9    c2.5-2,4.1-4.4,4.9-7.2c0.5-1.9,0.8-5.4,0.8-10.6v-4.3H824.5z"/>
		<path class="st0" d="M858.5,367.6V254.1h20.7v113.5H858.5z"/>
		<path class="st2" d="M237.8,351.5c-1.4,0-2.5-0.4-3.5-1.1s-1.6-1.6-1.8-2.7c-0.3-1.1-0.4-5-0.4-11.7v-33.1h14.1v-17.3h-14.1v-22.3    h-20.8v22.3h-9.5v17.3h9.5v35.9c0,7.7,0.2,12.8,0.7,15.3c0.5,3.6,1.5,6.4,2.9,8.5s3.6,3.8,6.6,5.1c3,1.3,6.4,2,10.1,2    c6.1,0,11.5-1.1,16.4-3.3l-1.8-16.9C242.5,350.8,239.7,351.5,237.8,351.5z"/>
	</g>
</g>
</svg>