<?xml version="1.0" encoding="UTF-8"?>
<svg version="1.1" xmlns="http://www.w3.org/2000/svg" width="120" height="83">
<path d="M0 0 C4.18099116 1.04524779 4.72845936 1.4105742 7.25 4.5625 C8.03117187 5.52349609 8.03117187 5.52349609 8.828125 6.50390625 C9.21484375 6.99761719 9.6015625 7.49132812 10 8 C10.54527344 7.69964844 11.09054688 7.39929688 11.65234375 7.08984375 C17.4485392 4.16697596 21.66321781 3.43255071 28 5 C28.99 5.495 28.99 5.495 30 6 C30 6.66 30 7.32 30 8 C28.865625 8.45375 27.73125 8.9075 26.5625 9.375 C18.76305237 13.29535727 13.80013797 20.78064453 8.875 27.75 C3.83332151 34.77659129 -0.75132451 39.48444961 -9.33203125 41.65234375 C-19.53505063 42.98187336 -28.52043489 38.09233344 -36.46875 32.15625 C-40.41127462 28.88006757 -40.41127462 28.88006757 -42 27 C-42 26.01 -42 25.02 -42 24 C-38.37 24 -34.74 24 -31 24 C-31.33 21.03 -31.66 18.06 -32 15 C-26.25 15.875 -26.25 15.875 -24 17 C-24 15.02 -24 13.04 -24 11 C-21.08517222 10.19032562 -19.53886783 9.78154007 -16.6875 10.9375 C-16.130625 11.288125 -15.57375 11.63875 -15 12 C-14.01 9.36 -13.02 6.72 -12 4 C-8.17902761 4.53069061 -5.93828597 5.49701566 -3 8 C-2.01 5.36 -1.02 2.72 0 0 Z " fill="#D55D28" transform="translate(64,4)"/>
<path d="M0 0 C2.375 1.375 2.375 1.375 4 3 C4 3.66 4 4.32 4 5 C4.99 5.33 5.98 5.66 7 6 C7.33 8.31 7.66 10.62 8 13 C8.99 12.34 9.98 11.68 11 11 C11.9375 13.625 11.9375 13.625 12 17 C8.59236055 21.86638922 3.2265043 24.19239978 -2.35546875 25.67578125 C-6.78235773 26.21851653 -10.76387622 25.25281108 -15 24 C-17.62627257 11.93921962 -17.62627257 11.93921962 -16.23046875 7.6171875 C-12.37805775 1.9669847 -6.87664579 -0.8969538 0 0 Z " fill="#F4864D" transform="translate(57,20)"/>
<path d="M0 0 C0.83093093 2.84108719 1.25401888 4.40799784 0.06640625 7.17578125 C-7.64401403 18.13058616 -16.57521421 26.91497577 -30 30 C-32.84034191 30.28291206 -35.64717902 30.32525859 -38.5 30.3125 C-39.22058594 30.32861328 -39.94117187 30.34472656 -40.68359375 30.36132812 C-45.84354843 30.36599355 -49.41103294 29.38139579 -54 27 C-54.66 26.34 -55.32 25.68 -56 25 C-56 24.01 -56 23.02 -56 22 C-53.40851101 22.44425526 -51.15420986 22.93039138 -48.75 24.015625 C-42.38906641 26.29255009 -33.81583614 26.3052233 -27.625 23.4375 C-25.76328703 22.31955606 -25.76328703 22.31955606 -24 21 C-23.35933594 20.56042969 -22.71867187 20.12085937 -22.05859375 19.66796875 C-16.72643172 15.54623881 -13.4104459 10.40817318 -9.96899414 4.71142578 C-6.85197264 -0.44647763 -5.88770273 -1.39445591 0 0 Z " fill="#C65323" transform="translate(90,23)"/>
<path d="M0 0 C1.35231679 0.62726511 2.69098229 1.28677153 4 2 C4.33523267 6.79568962 4.56531242 10.74648115 2.5625 15.1875 C-0.86334097 17.61065581 -2.95299432 17.14718697 -6.9765625 16.4921875 C-9 16 -9 16 -11 15 C-11.93077773 11.67139089 -12.20803693 8.44594501 -12 5 C-8.7506812 -0.07706062 -5.84052767 -0.74333989 0 0 Z " fill="#F69E69" transform="translate(58,26)"/>
<path d="M0 0 C0.66 0.33 1.32 0.66 2 1 C1.265611 2.32129824 0.51183106 3.63183171 -0.25 4.9375 C-0.66765625 5.66839844 -1.0853125 6.39929687 -1.515625 7.15234375 C-3.32533077 9.4049512 -4.21477374 9.48510816 -7 10 C-9.78446839 10.14640279 -12.52772889 10.23074488 -15.3125 10.25 C-16.41368164 10.2809375 -16.41368164 10.2809375 -17.53710938 10.3125 C-22.77400875 10.34967409 -26.34582469 9.43031715 -31 7 C-31.66 6.34 -32.32 5.68 -33 5 C-33 4.01 -33 3.02 -33 2 C-30.40851101 2.44425526 -28.15420986 2.93039138 -25.75 4.015625 C-19.81204309 6.14114367 -12.33156853 6.08275977 -6.34375 4.13671875 C-4.04461918 2.99131843 -1.83443772 1.83443772 0 0 Z " fill="#F37E44" transform="translate(67,43)"/>
<path d="M0 0 C1.98 0 3.96 0 6 0 C6.22281874 1.91503674 6.42771076 3.83216506 6.625 5.75 C6.74101562 6.81734375 6.85703125 7.8846875 6.9765625 8.984375 C7.00029475 12.03792399 6.61420985 13.46162421 5 16 C3.33388095 16.042721 1.66617115 16.04063832 0 16 C-1 15 -1 15 -1.1328125 12.12890625 C-1.13023438 10.95199219 -1.12765625 9.77507812 -1.125 8.5625 C-1.12757812 7.38816406 -1.13015625 6.21382813 -1.1328125 5.00390625 C-1 2 -1 2 0 0 Z " fill="#1E1E1E" transform="translate(11,59)"/>
<path d="M0 0 C-0.29296875 2.05078125 -0.5859375 4.1015625 -0.87890625 6.15234375 C-0.91886719 6.76207031 -0.95882812 7.37179688 -1 8 C-0.67 8.33 -0.34 8.66 0 9 C0.1875 11.4375 0.1875 11.4375 0 14 C-2 16 -2 16 -4.625 16.125 C-5.40875 16.08375 -6.1925 16.0425 -7 16 C-8.46684337 11.11052208 -8.05390562 5.94877422 -7 1 C-4.53721199 -0.231394 -2.7204945 -0.07159196 0 0 Z " fill="#1E1E1E" transform="translate(41,63)"/>
<path d="M0 0 C0 0.33 0 0.66 0 1 C-1.27875 1.0825 -2.5575 1.165 -3.875 1.25 C-6.04634555 1.30367785 -6.04634555 1.30367785 -8 2 C-10.1767623 4.99304817 -10.22025212 7.6304196 -10.125 11.25 C-10.08375 12.8175 -10.0425 14.385 -10 16 C-6.7 16.66 -3.4 17.32 0 18 C0 18.66 0 19.32 0 20 C-2.31 20.33 -4.62 20.66 -7 21 C-7 20.34 -7 19.68 -7 19 C-8.65 18.67 -10.3 18.34 -12 18 C-14.79104478 8.47761194 -14.79104478 8.47761194 -13 4 C-9.08256693 0.46519993 -5.26786037 -2.14006827 0 0 Z " fill="#F58E56" transform="translate(57,25)"/>
<path d="M0 0 C1.65 0.33 3.3 0.66 5 1 C6.25 8.625 6.25 8.625 4 12 C1.375 12.1875 1.375 12.1875 -1 12 C-2.50934217 8.98131566 -2.17510672 6.32702771 -2 3 C-1.34 2.01 -0.68 1.02 0 0 Z " fill="#1E1E1E" transform="translate(80,63)"/>
<path d="M0 0 C3.53571429 0.53571429 3.53571429 0.53571429 5 2 C5.07205511 3.68608966 5.08386068 5.37500659 5.0625 7.0625 C5.05347656 7.98160156 5.04445313 8.90070313 5.03515625 9.84765625 C5.02355469 10.55792969 5.01195312 11.26820312 5 12 C3.00045254 12.04254356 0.99958364 12.04080783 -1 12 C-2.58894072 10.41105928 -2.16998411 8.75198576 -2.1875 6.5625 C-2.20167969 5.75941406 -2.21585938 4.95632812 -2.23046875 4.12890625 C-2 2 -2 2 0 0 Z " fill="#1E1E1E" transform="translate(47,63)"/>
<path d="M0 0 C2.0625 0.25 2.0625 0.25 4 1 C5.20272819 3.40545638 5.10071472 4.94996953 5.0625 7.625 C5.05347656 8.44226563 5.04445313 9.25953125 5.03515625 10.1015625 C5.02355469 10.72804688 5.01195312 11.35453125 5 12 C2.69 12 0.38 12 -2 12 C-2.05395478 10.37536158 -2.09277195 8.75021459 -2.125 7.125 C-2.14820312 6.22007813 -2.17140625 5.31515625 -2.1953125 4.3828125 C-2 2 -2 2 0 0 Z " fill="#1E1E1E" transform="translate(24,63)"/>
<path d="M0 0 C1.32 0 2.64 0 4 0 C4.96658722 3.75895029 4.82471032 6.24298631 4 10 C3.96227087 11.9996441 3.95350094 14.00054061 4 16 C2.35 16 0.7 16 -1 16 C-1.02685095 13.52076199 -1.04676547 11.0418116 -1.0625 8.5625 C-1.07506836 7.50192383 -1.07506836 7.50192383 -1.08789062 6.41992188 C-1.09653588 4.61306441 -1.05220011 2.80612397 -1 1 C-0.67 0.67 -0.34 0.34 0 0 Z " fill="#1E1E1E" transform="translate(91,59)"/>
<path d="M0 0 C1.32 0 2.64 0 4 0 C4.92844389 4.33273814 4.92844389 7.66726186 4 12 C2.35 12 0.7 12 -1 12 C-1.02687279 10.18757948 -1.04633715 8.37504767 -1.0625 6.5625 C-1.07410156 5.55316406 -1.08570312 4.54382813 -1.09765625 3.50390625 C-1 1 -1 1 0 0 Z " fill="#1E1E1E" transform="translate(69,63)"/>
<path d="M0 0 C0.94875 0.04125 1.8975 0.0825 2.875 0.125 C3 3.5 3 3.5 2.875 7.125 C0.875 9.125 0.875 9.125 -2.25 9.25 C-3.673125 9.188125 -3.673125 9.188125 -5.125 9.125 C-5.25 5.75 -5.25 5.75 -5.125 2.125 C-3.125 0.125 -3.125 0.125 0 0 Z " fill="#F8B07F" transform="translate(55.125,29.875)"/>
<path d="M0 0 C2.4375 1 2.4375 1 4 2 C4 4.31 4 6.62 4 9 C3.34 8.67 2.68 8.34 2 8 C1.87625 7.360625 1.7525 6.72125 1.625 6.0625 C1.16808892 3.86675939 1.16808892 3.86675939 -0.75 2.5625 C-3.10780218 1.74106714 -3.10780218 1.74106714 -5.6875 3.0625 C-8.15792395 4.7929327 -8.15792395 4.7929327 -8.8125 7.375 C-8.99504647 9.93065054 -9.07317291 12.43894808 -9 15 C-9.66 15 -10.32 15 -11 15 C-12.7357176 6.14955876 -12.7357176 6.14955876 -10 1.875 C-6.3040907 -0.43494331 -4.29021887 -0.54602786 0 0 Z " fill="#F69A65" transform="translate(58,26)"/>
<path d="M0 0 C1.2065625 0.0309375 1.2065625 0.0309375 2.4375 0.0625 C3.5625 3.8125 3.5625 3.8125 2.4375 6.0625 C1.7775 6.0625 1.1175 6.0625 0.4375 6.0625 C0.7675 8.0425 1.0975 10.0225 1.4375 12.0625 C-0.2125 12.0625 -1.8625 12.0625 -3.5625 12.0625 C-4.81084144 9.56581711 -4.51405125 8.24920849 -4.1875 5.5 C-4.09726562 4.69433594 -4.00703125 3.88867188 -3.9140625 3.05859375 C-3.38435414 0.0510274 -3.11405469 0.07595255 0 0 Z " fill="#1E1E1E" transform="translate(60.5625,62.9375)"/>
<path d="M0 0 C0.66 0 1.32 0 2 0 C2 0.66 2 1.32 2 2 C2.66 2 3.32 2 4 2 C4 3.32 4 4.64 4 6 C3.34 6 2.68 6 2 6 C2 7.32 2 8.64 2 10 C2.66 10 3.32 10 4 10 C3.67 11.32 3.34 12.64 3 14 C1.68 14 0.36 14 -1 14 C-1.22142255 12.04310341 -1.4267568 10.08438048 -1.625 8.125 C-1.74101563 7.03445312 -1.85703125 5.94390625 -1.9765625 4.8203125 C-1.98429687 3.88960938 -1.99203125 2.95890625 -2 2 C-1.34 1.34 -0.68 0.68 0 0 Z " fill="#1E1E1E" transform="translate(102,61)"/>
<path d="M0 0 C2.375 1.5 2.375 1.5 4 3 C3.67 3.66 3.34 4.32 3 5 C2.34 4.67 1.68 4.34 1 4 C-1.53932883 3.98583564 -1.53932883 3.98583564 -4.375 4.25 C-5.80972656 4.35054687 -5.80972656 4.35054687 -7.2734375 4.453125 C-10.25516309 5.05117884 -11.74178538 6.00934635 -14 8 C-13.9375 6.25 -13.9375 6.25 -13 4 C-8.62474822 0.91158698 -5.48691534 -0.85352016 0 0 Z " fill="#F37A3F" transform="translate(57,20)"/>
<path d="M0 0 C2.25 2 2.25 2 2.75 4.9375 C2.22013347 8.18293249 1.45261503 9.61383371 -0.75 12 C-2.07 11.67 -3.39 11.34 -4.75 11 C-3.7909375 10.7215625 -3.7909375 10.7215625 -2.8125 10.4375 C-0.32873787 9.05753944 -0.32873787 9.05753944 0 5.375 C0.0825 4.26125 0.165 3.1475 0.25 2 C-4.70514502 2.87472593 -4.70514502 2.87472593 -8.1875 6.125 C-8.373125 6.74375 -8.55875 7.3625 -8.75 8 C-9.08 7.34 -9.41 6.68 -9.75 6 C-8.45125462 3.26579919 -7.24671842 1.39737474 -4.875 -0.5 C-2.75 -1 -2.75 -1 0 0 Z " fill="#F7A674" transform="translate(57.75,28)"/>
<path d="M0 0 C3.34373475 0.55728913 6.03312999 1.35173889 9 3 C9 4.32 9 5.64 9 7 C3.53571429 6.39285714 3.53571429 6.39285714 1.125 4.625 C0 3 0 3 0 0 Z " fill="#E8692E" transform="translate(34,45)"/>
<path d="M0 0 C-1 3 -1 3 -3 4.25 C-7.15639996 5.28909999 -10.8118937 4.67520668 -15 4 C-15 3.34 -15 2.68 -15 2 C-12.87528825 1.6648342 -10.75022095 1.33192171 -8.625 1 C-7.44164062 0.814375 -6.25828125 0.62875 -5.0390625 0.4375 C-2 0 -2 0 0 0 Z " fill="#F58C54" transform="translate(63,47)"/>
<path d="M0 0 C0.66 0.33 1.32 0.66 2 1 C0.35 3.64 -1.3 6.28 -3 9 C-3.99 8.67 -4.98 8.34 -6 8 C-5.38125 7.236875 -4.7625 6.47375 -4.125 5.6875 C-1.94402948 3.00374191 -1.94402948 3.00374191 0 0 Z " fill="#F07439" transform="translate(67,43)"/>
<path d="M0 0 C1.32 0 2.64 0 4 0 C3.67 1.65 3.34 3.3 3 5 C1.68 5 0.36 5 -1 5 C-0.67 3.35 -0.34 1.7 0 0 Z " fill="#F9BA8C" transform="translate(53,32)"/>
<path d="M0 0 C0.33 0 0.66 0 1 0 C1.75 2.75 1.75 2.75 2 6 C0.0625 8.375 0.0625 8.375 -2 10 C-2.66 9.67 -3.32 9.34 -4 9 C-3.34 8.34 -2.68 7.68 -2 7 C-1.28072705 4.68234271 -0.6090107 2.34904126 0 0 Z " fill="#F37C41" transform="translate(67,31)"/>
<path d="M0 0 C0.99 0.33 1.98 0.66 3 1 C3 1.99 3 2.98 3 4 C1.68 3.67 0.36 3.34 -1 3 C-0.67 2.01 -0.34 1.02 0 0 Z " fill="#1E1E1E" transform="translate(108,59)"/>
</svg>
