<?xml version="1.0" encoding="UTF-8"?>
<svg version="1.1" xmlns="http://www.w3.org/2000/svg" width="290" height="290">
<path d="M0 0 C14.10529872 -1.0784391 14.10529872 -1.0784391 18.73828125 1.55859375 C20.8125 3.5 20.8125 3.5 22.51953125 5.46875 C23.00808594 5.9740625 23.49664062 6.479375 24 7 C24.99 7 25.98 7 27 7 C27.91172162 5.86179976 28.78048795 4.68892199 29.625 3.5 C32.3398483 0.56039301 34.34722781 -0.23446908 38.23828125 -0.46484375 C42.50555333 -0.51497323 46.74434628 -0.30158176 51 0 C49.88559348 3.34321955 49.02527657 4.06019619 46.375 6.25 C42.36917659 9.64121152 38.6577926 13.23933198 35 17 C42.05744789 26.11116285 42.05744789 26.11116285 51 33 C51 33.66 51 34.32 51 35 C48.20826945 35.02690104 45.41679652 35.04679053 42.625 35.0625 C41.8309375 35.07087891 41.036875 35.07925781 40.21875 35.08789062 C34.2265625 35.11328125 34.2265625 35.11328125 32 34 C32 33.34 32 32.68 32 32 C31.01 31.67 30.02 31.34 29 31 C27.62804426 29.70644173 26.28817344 28.37701298 25 27 C24.61972656 27.5775 24.23945312 28.155 23.84765625 28.75 C21.32153554 31.93390706 19.12112768 34.60744215 14.95263672 35.37890625 C9.95094599 35.71472022 4.98927979 35.4082138 0 35 C1.11440652 31.65678045 1.97472343 30.93980381 4.625 28.75 C8.63082341 25.35878848 12.3422074 21.76066802 16 18 C14.48052501 14.63251488 13.47899158 13.39159663 10 12 C10 11.34 10 10.68 10 10 C9.01 9.67 8.02 9.34 7 9 C4.8125 7.0625 4.8125 7.0625 3 5 C3 4.34 3 3.68 3 3 C2.01 2.67 1.02 2.34 0 2 C0 1.34 0 0.68 0 0 Z M26 12 C26 15.63 26 19.26 26 23 C28.31 21.35 30.62 19.7 33 18 C29.82460444 14.57421051 29.82460444 14.57421051 26 12 Z " fill="#13BB2F" transform="translate(34,123)"/>
<path d="M0 0 C4.36374582 4.36374582 5.56058227 8.12346665 5.66796875 14.2109375 C5.64815165 16.39081842 5.6125568 18.57060378 5.5625 20.75 C5.54219727 22.42642578 5.54219727 22.42642578 5.52148438 24.13671875 C5.48627537 26.88302088 5.43247288 29.62907357 5.375 32.375 C1.745 32.375 -1.885 32.375 -5.625 32.375 C-5.955 31.715 -6.285 31.055 -6.625 30.375 C-7.615 31.035 -8.605 31.695 -9.625 32.375 C-14.87575157 33.14716935 -19.22599744 33.2253741 -23.8125 30.4375 C-26.26019709 26.30173594 -26.53635545 23.06805469 -25.625 18.375 C-23.76085721 15.00520342 -22.41420506 13.74207212 -18.9375 12.125 C-14.85075275 11.19969874 -10.79616221 10.72723148 -6.625 10.375 C-6.955 9.715 -7.285 9.055 -7.625 8.375 C-13.72281001 8.15415376 -18.84142935 8.36332325 -24.625 10.375 C-24.295 7.405 -23.965 4.435 -23.625 1.375 C-16.3431473 -2.68928988 -7.67824748 -3.44197301 0 0 Z M-6.625 17.375 C-9.265 18.035 -11.905 18.695 -14.625 19.375 C-14.295 21.025 -13.965 22.675 -13.625 24.375 C-9.14616304 23.92796014 -9.14616304 23.92796014 -5.625 21.375 C-5.955 20.055 -6.285 18.735 -6.625 17.375 Z " fill="#2D2A2B" transform="translate(185.625,125.625)"/>
<path d="M0 0 C3.72316037 2.24705891 5.23779785 5.4149763 6.859375 9.30859375 C7.29296875 12.96484375 7.29296875 12.96484375 7.296875 16.80859375 C7.31621094 18.07703125 7.33554688 19.34546875 7.35546875 20.65234375 C6.66999156 25.70436463 4.58476841 28.83693466 0.734375 32.12109375 C-4.88438347 34.44188529 -10.68124701 35.10294053 -16.515625 33.18359375 C-20.78136232 31.31356345 -23.07433832 28.44116712 -25.140625 24.30859375 C-25.31841123 21.70883443 -25.41815522 19.16034568 -25.453125 16.55859375 C-25.48212891 15.85476562 -25.51113281 15.1509375 -25.54101562 14.42578125 C-25.6032853 9.27176806 -24.60358198 6.34379404 -21.140625 2.30859375 C-15.44978175 -2.23064547 -6.7791492 -2.18961571 0 0 Z M-12.140625 8.30859375 C-14.38296509 11.67210388 -14.41160715 12.93169431 -14.390625 16.87109375 C-14.39578125 17.84175781 -14.4009375 18.81242187 -14.40625 19.8125 C-14.38656996 22.48152312 -14.38656996 22.48152312 -12.140625 24.30859375 C-9.140625 24.64192708 -9.140625 24.64192708 -6.140625 24.30859375 C-3.89468004 22.48152312 -3.89468004 22.48152312 -3.875 19.8125 C-3.88015625 18.84183594 -3.8853125 17.87117188 -3.890625 16.87109375 C-3.88546875 15.90300781 -3.8803125 14.93492187 -3.875 13.9375 C-3.95675503 11.07713262 -3.95675503 11.07713262 -6.140625 8.30859375 C-9.140625 7.80859375 -9.140625 7.80859375 -12.140625 8.30859375 Z " fill="#2D2A2B" transform="translate(108.140625,124.69140625)"/>
<path d="M0 0 C2.87029869 1.79393668 4.49131638 2.98263276 6 6 C6.08543895 8.10528933 6.10714725 10.21331157 6.09765625 12.3203125 C6.09443359 13.57714844 6.09121094 14.83398438 6.08789062 16.12890625 C6.07951172 17.44761719 6.07113281 18.76632813 6.0625 20.125 C6.05748489 21.46484211 6.05292201 22.804686 6.04882812 24.14453125 C6.03701086 27.42973206 6.02053617 30.71484397 6 34 C2.37 34 -1.26 34 -5 34 C-5.495 22.615 -5.495 22.615 -6 11 C-10.60532389 9.54685336 -10.60532389 9.54685336 -13 11 C-13.33 18.59 -13.66 26.18 -14 34 C-17.63 34 -21.26 34 -25 34 C-25 23.11 -25 12.22 -25 1 C-21.37 1 -17.74 1 -14 1 C-13.67 1.66 -13.34 2.32 -13 3 C-12.525625 2.505 -12.05125 2.01 -11.5625 1.5 C-7.77844086 -0.71505901 -4.28448189 -0.7102617 0 0 Z " fill="#2D2A2B" transform="translate(221,124)"/>
<path d="M0 0 C0 2.64 0 5.28 0 8 C3.3 8.33 6.6 8.66 10 9 C10.09765625 15.15234375 10.09765625 15.15234375 10 17 C9 18 9 18 6.93359375 18.09765625 C3.46679688 18.04882812 3.46679688 18.04882812 0 18 C0 22.62 0 27.24 0 32 C3.63 31.67 7.26 31.34 11 31 C10.67 34.3 10.34 37.6 10 41 C6.80843552 42.06385483 4.41502524 42.16677982 1.0625 42.1875 C-0.49791016 42.20876953 -0.49791016 42.20876953 -2.08984375 42.23046875 C-5.02877049 41.99772153 -6.60925335 41.6954512 -9 40 C-10.7450357 37.12552655 -11.24305598 35.01391825 -11.1953125 31.671875 C-11.18564453 30.47304687 -11.18564453 30.47304687 -11.17578125 29.25 C-11.15902344 28.425 -11.14226562 27.6 -11.125 26.75 C-11.11597656 25.90953125 -11.10695312 25.0690625 -11.09765625 24.203125 C-11.07415817 22.13529396 -11.03828908 20.06761005 -11 18 C-12.65 18 -14.3 18 -16 18 C-16 15.03 -16 12.06 -16 9 C-14.35 9 -12.7 9 -11 9 C-11 6.36 -11 3.72 -11 1 C-7.26513121 0.4254048 -3.78706732 0 0 0 Z " fill="#2D2A2B" transform="translate(245,116)"/>
<path d="M0 0 C0 3.96 0 7.92 0 12 C-3.41796875 12.24414062 -3.41796875 12.24414062 -6.8359375 12.48828125 C-9.37921338 12.82990528 -9.37921338 12.82990528 -11 16 C-11.27401018 18.02921669 -11.27401018 18.02921669 -11.1953125 20.23046875 C-11.18886719 21.03291016 -11.18242187 21.83535156 -11.17578125 22.66210938 C-11.15064453 23.91217773 -11.15064453 23.91217773 -11.125 25.1875 C-11.11146484 26.4549707 -11.11146484 26.4549707 -11.09765625 27.74804688 C-11.07410703 29.83215243 -11.03823647 31.91611217 -11 34 C-14.96 34 -18.92 34 -23 34 C-23 23.11 -23 12.22 -23 1 C-19.37 1 -15.74 1 -12 1 C-11.67 1.66 -11.34 2.32 -11 3 C-10.484375 2.505 -9.96875 2.01 -9.4375 1.5 C-6.19319983 -0.49649241 -3.73782666 -0.21564385 0 0 Z " fill="#2D2A2B" transform="translate(142,124)"/>
<path d="M0 0 C3.63 0 7.26 0 11 0 C11 10.89 11 21.78 11 33 C7.37 33 3.74 33 0 33 C0 22.11 0 11.22 0 0 Z " fill="#2D2A2B" transform="translate(145,125)"/>
<path d="M0 0 C0.66 0 1.32 0 2 0 C2 3.96 2 7.92 2 12 C1.34 12 0.68 12 0 12 C-0.33 11.34 -0.66 10.68 -1 10 C-1.33 11.65 -1.66 13.3 -2 15 C-3.98 15 -5.96 15 -8 15 C-8.33 14.01 -8.66 13.02 -9 12 C-12.63 12 -16.26 12 -20 12 C-20 10.02 -20 8.04 -20 6 C-20.33 6 -20.66 6 -21 6 C-21.33 7.98 -21.66 9.96 -22 12 C-22.66 12 -23.32 12 -24 12 C-24.33 10.02 -24.66 8.04 -25 6 C-25.33 6 -25.66 6 -26 6 C-26.33 7.98 -26.66 9.96 -27 12 C-27.66 12 -28.32 12 -29 12 C-29 9.03 -29 6.06 -29 3 C-27.20906809 2.91913853 -25.41710372 2.86087298 -23.625 2.8125 C-22.12839844 2.76029297 -22.12839844 2.76029297 -20.6015625 2.70703125 C-19.74304688 2.80371094 -18.88453125 2.90039062 -18 3 C-17.01 4.485 -17.01 4.485 -16 6 C-15.67 5.01 -15.34 4.02 -15 3 C-13.4840625 3.309375 -13.4840625 3.309375 -11.9375 3.625 C-7.68645871 4.02986108 -4.96890029 3.50818211 -1 2 C-0.67 1.34 -0.34 0.68 0 0 Z M-6 5 C-6 5.66 -6 6.32 -6 7 C-5.01 6.67 -4.02 6.34 -3 6 C-3.99 5.67 -4.98 5.34 -6 5 Z M-13 8 C-13.33 8.66 -13.66 9.32 -14 10 C-13.34 10 -12.68 10 -12 10 C-12.33 9.34 -12.66 8.68 -13 8 Z M-9 8 C-8 11 -8 11 -8 11 Z " fill="#2D2A2B" transform="translate(152,163)"/>
<path d="M0 0 C0.99 0 1.98 0 3 0 C3 3.96 3 7.92 3 12 C-3.93 12 -10.86 12 -18 12 C-18.33 11.01 -18.66 10.02 -19 9 C-19.66 9 -20.32 9 -21 9 C-21 9.99 -21 10.98 -21 12 C-21.99 12 -22.98 12 -24 12 C-24 8.37 -24 4.74 -24 1 C-20.625 0.8125 -20.625 0.8125 -17 1 C-16.34 1.99 -15.68 2.98 -15 4 C-14.67 3.67 -14.34 3.34 -14 3 C-12.00200428 2.90126184 -10.00042842 2.87028201 -8 2.875 C-6.906875 2.87242187 -5.81375 2.86984375 -4.6875 2.8671875 C-2 3 -2 3 -1 4 C-0.67 2.68 -0.34 1.36 0 0 Z M-22 3 C-22 3.99 -22 4.98 -22 6 C-20.68 5.67 -19.36 5.34 -18 5 C-18 4.34 -18 3.68 -18 3 C-19.32 3 -20.64 3 -22 3 Z M-13 5 C-13 5.66 -13 6.32 -13 7 C-12.01 6.67 -11.02 6.34 -10 6 C-10.99 5.67 -11.98 5.34 -13 5 Z M-8 6 C-7.67 6.66 -7.34 7.32 -7 8 C-6.34 7.34 -5.68 6.68 -5 6 C-5.99 6 -6.98 6 -8 6 Z M-16 8 C-15 11 -15 11 -15 11 Z M-4 8 C-4.33 8.66 -4.66 9.32 -5 10 C-4.34 10 -3.68 10 -3 10 C-3.33 9.34 -3.66 8.68 -4 8 Z M-13 9 C-9 10 -9 10 -9 10 Z " fill="#2B292A" transform="translate(225,163)"/>
<path d="M0 0 C0.66 0 1.32 0 2 0 C2 3.96 2 7.92 2 12 C-4.6 12 -11.2 12 -18 12 C-18 9.69 -18 7.38 -18 5 C-18.66 5 -19.32 5 -20 5 C-20 7.31 -20 9.62 -20 12 C-20.99 12 -21.98 12 -23 12 C-23 9.03 -23 6.06 -23 3 C-17.33333333 3 -11.66666667 3 -6 3 C-6 2.34 -6 1.68 -6 1 C-5.34 1 -4.68 1 -4 1 C-4 1.66 -4 2.32 -4 3 C-3.01 3 -2.02 3 -1 3 C-0.67 2.01 -0.34 1.02 0 0 Z M-1 3 C0 5 0 5 0 5 Z M-15 6 C-14.67 6.66 -14.34 7.32 -14 8 C-13.67 7.34 -13.34 6.68 -13 6 C-13.66 6 -14.32 6 -15 6 Z M-4 6 C-4 7.32 -4 8.64 -4 10 C-3.01 10 -2.02 10 -1 10 C-1 8.68 -1 7.36 -1 6 C-1.99 6 -2.98 6 -4 6 Z M-11 8 C-11.66 8.66 -12.32 9.32 -13 10 C-12.01 10 -11.02 10 -10 10 C-10.33 9.34 -10.66 8.68 -11 8 Z " fill="#2C2A2B" transform="translate(178,163)"/>
<path d="M0 0 C3.5625 0.375 3.5625 0.375 5.5625 2.0625 C6.83346428 5.0016049 6.66193143 6.39082898 5.5625 9.375 C2.5625 11.375 2.5625 11.375 -1.0625 11.0625 C-4.4375 10.375 -4.4375 10.375 -5.4375 9.375 C-5.625 5.9375 -5.625 5.9375 -5.4375 2.375 C-3.4375 0.375 -3.4375 0.375 0 0 Z " fill="#2D2A2B" transform="translate(150.4375,111.625)"/>
<path d="M0 0 C2.14576637 -0.02685938 4.29162645 -0.04633088 6.4375 -0.0625 C7.63246094 -0.07410156 8.82742187 -0.08570313 10.05859375 -0.09765625 C13 0 13 0 14 1 C14.14115161 3.67058851 14.04247107 6.32432238 14 9 C9.38 9 4.76 9 0 9 C1 5 1 5 2 4 C1.34 3.67 0.68 3.34 0 3 C0 2.01 0 1.02 0 0 Z M10 2 C9.67 2.66 9.34 3.32 9 4 C9.99 4 10.98 4 12 4 C12 3.34 12 2.68 12 2 C11.34 2 10.68 2 10 2 Z M6 3 C4.515 4.98 4.515 4.98 3 7 C4.32 7 5.64 7 7 7 C6.67 5.68 6.34 4.36 6 3 Z " fill="#2D2A2B" transform="translate(232,166)"/>
<path d="M0 0 C0.99 0 1.98 0 3 0 C3 3.96 3 7.92 3 12 C0.66705225 12.04241723 -1.66702567 12.04092937 -4 12 C-5 11 -5 11 -5.0625 7.4375 C-5.041875 6.303125 -5.02125 5.16875 -5 4 C-3.35 3.67 -1.7 3.34 0 3 C0 2.01 0 1.02 0 0 Z M-2 5 C-2.33 6.65 -2.66 8.3 -3 10 C-2.01 10 -1.02 10 0 10 C-0.33 8.35 -0.66 6.7 -1 5 C-1.33 5 -1.66 5 -2 5 Z " fill="#2C282A" transform="translate(252,163)"/>
<path d="M0 0 C2.31 0 4.62 0 7 0 C8.4783226 2.95664519 8.06032783 5.74229737 8 9 C7.01 9 6.02 9 5 9 C5 6.69 5 4.38 5 2 C4.34 2 3.68 2 3 2 C3 4.31 3 6.62 3 9 C2.01 9 1.02 9 0 9 C0 6.03 0 3.06 0 0 Z " fill="#2C2A2B" transform="translate(189,166)"/>
<path d="M0 0 C2.5 0.125 2.5 0.125 3.5 1.125 C3.625 4.625 3.625 4.625 3.5 8.125 C2.5 9.125 2.5 9.125 0 9.25 C-2.5 9.125 -2.5 9.125 -3.5 8.125 C-3.625 4.625 -3.625 4.625 -3.5 1.125 C-2.5 0.125 -2.5 0.125 0 0 Z M-0.5 2.125 C-0.83 3.775 -1.16 5.425 -1.5 7.125 C-0.51 7.125 0.48 7.125 1.5 7.125 C1.17 5.475 0.84 3.825 0.5 2.125 C0.17 2.125 -0.16 2.125 -0.5 2.125 Z " fill="#2C292A" transform="translate(184.5,165.875)"/>
<path d="M0 0 C0.99 0 1.98 0 3 0 C3 3.63 3 7.26 3 11 C2.01 11 1.02 11 0 11 C0 7.37 0 3.74 0 0 Z " fill="#2E292C" transform="translate(119,164)"/>
<path d="M0 0 C0.99 0.33 1.98 0.66 3 1 C2.67 4.63 2.34 8.26 2 12 C1.34 12 0.68 12 0 12 C0 8.04 0 4.08 0 0 Z " fill="#2A2728" transform="translate(229,163)"/>
</svg>
